<svg xmlns="http://www.w3.org/2000/svg" width="93.531" height="93.53" viewBox="0 0 93.531 93.53">
  <g id="Gruppe_1839" data-name="Gruppe 1839" transform="translate(-645.482 -1981.917)">
    <g id="Gruppe_1838" data-name="Gruppe 1838" transform="translate(646.982 1983.417)">
      <path id="Pfad_2062" data-name="Pfad 2062" d="M229.854,134.233a45.266,45.266,0,1,1-45.266-45.265A45.265,45.265,0,0,1,229.854,134.233Z" transform="translate(-139.323 -88.968)" fill="#fd6d7d" stroke="#fff" stroke-width="3"/>
      <path id="Pfad_2063" data-name="Pfad 2063" d="M204.044,129.369,199.58,115.3h.9a2.718,2.718,0,0,0,0-5.436h-13.27l.99-.473-.275-.576a8.77,8.77,0,0,0-15.852,0l-.275.576.99.473H159.519a2.718,2.718,0,0,0,0,5.436h.9l-4.464,14.071h-3.528v.639a8.866,8.866,0,1,0,17.731,0v-.639h-3.53L162.164,115.3H175.2a5.543,5.543,0,0,0,2.084,2.085v27.357h-2.344v3.324h-3.265a5.991,5.991,0,0,0-5.985,5.984v1.634h28.624v-1.634a5.989,5.989,0,0,0-5.982-5.984h-3.267v-3.324h-2.344V117.382A5.543,5.543,0,0,0,184.8,115.3h13.033l-4.464,14.071h-3.53v.639a8.866,8.866,0,1,0,17.731,0v-.639ZM161.292,137.6a7.6,7.6,0,0,1-7.561-6.949h15.123A7.6,7.6,0,0,1,161.292,137.6Zm-4-8.227,4-12.6,3.995,12.6Zm15.929-20.007a7.494,7.494,0,0,1,13.548,0l.238.5h-2.2a5.507,5.507,0,0,0-9.619,0h-2.2Zm1.424,4.658h-15.13a1.44,1.44,0,0,1,0-2.881h15.13a5.474,5.474,0,0,0,0,2.881Zm13.679,35.321a4.711,4.711,0,0,1,4.7,4.706v.356h-26.07v-.356a4.712,4.712,0,0,1,4.708-4.706h16.657Zm-4.544-3.324v2.047h-7.57v-2.047h7.57Zm-5.226-1.277V117.931a5.54,5.54,0,0,0,2.882,0v26.808Zm3.249-28.3A4.263,4.263,0,1,1,180,108.314a4.286,4.286,0,0,1,3.861,2.457,4.239,4.239,0,0,1,0,3.617A4.288,4.288,0,0,1,181.807,116.439Zm3.544-5.3H200.48a1.44,1.44,0,0,1,0,2.881H185.35a5.509,5.509,0,0,0,0-2.881Zm13.357,5.632,4,12.6h-7.992Zm0,20.824a7.6,7.6,0,0,1-7.563-6.949h15.124A7.6,7.6,0,0,1,198.708,137.6Z" transform="translate(-135.687 -84.854)" fill="#fff" stroke="#fff" stroke-miterlimit="10" stroke-width="0.5"/>
    </g>
  </g>
</svg>
