<svg xmlns="http://www.w3.org/2000/svg" width="93.53" height="93.53" viewBox="0 0 93.53 93.53">
  <g id="Gruppe_1869" data-name="Gruppe 1869" transform="translate(-460.173 -289.034)">
    <path id="Pfad_2201" data-name="Pfad 2201" d="M552.2,335.8a45.265,45.265,0,1,1-45.265-45.266A45.264,45.264,0,0,1,552.2,335.8Z" transform="translate(0)" fill="#fd6d7d" stroke="#fff" stroke-width="3"/>
    <g id="Gruppe_1877" data-name="Gruppe 1877" transform="translate(475.617 337.569)">
      <g id="Gruppe_1876" data-name="Gruppe 1876">
        <g id="Gruppe_1871" data-name="Gruppe 1871" transform="translate(7.017 12.161)">
          <g id="Gruppe_1869-2" data-name="Gruppe 1869">
            <path id="Pfad_2202" data-name="Pfad 2202" d="M483.381,348.948a5.737,5.737,0,0,1-2.857-.765l-.084-.049a5.765,5.765,0,0,1-2.137-7.868l2.742-4.787,1.678.961-2.742,4.787a3.831,3.831,0,0,0,1.42,5.229l.085.049a3.832,3.832,0,0,0,5.228-1.421l2.775-4.842,1.678.961-2.774,4.842a5.73,5.73,0,0,1-3.492,2.7A5.818,5.818,0,0,1,483.381,348.948Z" transform="translate(-477.538 -335.479)" fill="#fff"/>
          </g>
          <g id="Gruppe_1870" data-name="Gruppe 1870" transform="translate(4.677 2.465)">
            <rect id="Rechteck_163" data-name="Rechteck 163" width="6.044" height="1.934" transform="translate(0 5.244) rotate(-60.197)" fill="#fff"/>
          </g>
        </g>
        <g id="Gruppe_1872" data-name="Gruppe 1872" transform="translate(5.088 4.506)">
          <path id="Pfad_2203" data-name="Pfad 2203" d="M501.842,342.936c-11.492,0-21.789-5.613-26.233-14.3l2.176-.748C481.86,335.855,491.3,341,501.842,341c10.577,0,20.033-5.172,24.09-13.178l2.179.742C523.687,337.3,513.376,342.936,501.842,342.936Z" transform="translate(-475.609 -327.824)" fill="#fff"/>
        </g>
        <g id="Gruppe_1875" data-name="Gruppe 1875">
          <g id="Gruppe_1873" data-name="Gruppe 1873" transform="translate(53.145)">
            <path id="Pfad_2204" data-name="Pfad 2204" d="M519.993,329.579a5.8,5.8,0,0,1-5.781-6.261l1.928.154a3.863,3.863,0,0,0,6.34,3.261l1.246,1.478A5.782,5.782,0,0,1,519.993,329.579Z" transform="translate(-514.193 -323.318)" fill="#fff"/>
          </g>
          <g id="Gruppe_1874" data-name="Gruppe 1874">
            <path id="Pfad_2205" data-name="Pfad 2205" d="M474.253,329.579a5.782,5.782,0,0,1-3.732-1.368l1.246-1.478a3.863,3.863,0,0,0,6.34-3.261l1.928-.154a5.8,5.8,0,0,1-5.782,6.261Z" transform="translate(-470.521 -323.318)" fill="#fff"/>
          </g>
        </g>
      </g>
    </g>
  </g>
</svg>
