<svg xmlns="http://www.w3.org/2000/svg" width="48.168" height="48.167" viewBox="0 0 48.168 48.167">
  <path id="Pfad_1912" data-name="Pfad 1912" d="M857.2,27.723a24.077,24.077,0,1,0,20.027,10.7A24.083,24.083,0,0,0,857.2,27.723Zm-6.283,36.644h-5.292V45.845h5.292ZM848.271,43.86a3.307,3.307,0,1,1,3.308-3.307A3.305,3.305,0,0,1,848.271,43.86Zm21.168,20.507h-5.292V53.121a1.749,1.749,0,0,0-.907-1.6,3.92,3.92,0,0,0-4.383,1V64.367h-5.294V45.845h5.294v.813a8.232,8.232,0,0,1,6.969.243,7.514,7.514,0,0,1,3.613,6.22Z" transform="translate(-833.118 -27.723)" fill="#fd6d7d"/>
</svg>
