<?xml version="1.0" encoding="utf-8"?>
<!-- Generator: Adobe Illustrator 23.1.0, SVG Export Plug-In . SVG Version: 6.00 Build 0)  -->
<svg version="1.1" id="Ebene_1" xmlns="http://www.w3.org/2000/svg" xmlns:xlink="http://www.w3.org/1999/xlink" x="0px" y="0px"
	 viewBox="0 0 141.8 51" style="enable-background:new 0 0 141.8 51;" xml:space="preserve">
<style type="text/css">
	.st0{fill:#EF7884;}
</style>
<g>
	<path class="st0" d="M119.8,14.8c0,1.7,1.3,3,3,3s3-1.3,3-3s-1.3-3-3-3C121,11.9,119.8,13.1,119.8,14.8"/>
	<path d="M114.5,20.8h-2.6v15.5h2.6V20.8z M107.3,20.6H107c-2.9,0-4.5,1.9-4.5,1.9l-0.7-1.7h-1.9v15.5h2.6v-8.8
		c0-2.6,1.7-4.3,4.1-4.3h0.7L107.3,20.6L107.3,20.6z M88.7,18.9c0,1.2-0.7,1.9-1.9,1.9h-1.2v2.4h2.7v8.1c0,3.1,2.1,5.2,4.5,5.2
		c1,0,1.5-0.3,1.5-0.3v-2.3c0,0-0.3,0.2-0.9,0.2c-1.5,0-2.6-1-2.6-2.7v-8.1h3.4v-2.4h-3.4v-4.1h-2.1V18.9z M73.9,36.4
		c2.9,0,4.5-1.9,4.5-1.9l0.7,1.7H81V20.7h-2.6v8.9c0,2.6-1.7,4.3-4.1,4.3c-2.1,0-3.8-1.7-3.8-4.3v-8.9h-2.6v8.9
		C67.9,33.7,70.7,36.4,73.9,36.4 M55.9,20.6c-2.9,0-4.5,1.9-4.5,1.9l-0.7-1.7h-1.9v15.5h2.6v-8.9c0-2.6,1.7-4.3,4.1-4.3
		c2.1,0,3.8,1.7,3.8,4.3v8.9h2.6v-8.9C61.9,23.4,59.2,20.6,55.9,20.6 M36.8,20.6c-2.9,0-4.5,1.9-4.5,1.9l-0.7-1.7h-1.9v15.5h2.6
		v-8.9c0-2.6,1.7-4.3,4.1-4.3c2.1,0,3.8,1.7,3.8,4.3v8.9h2.6v-8.9C42.8,23.4,40.1,20.6,36.8,20.6 M23.1,14.6h-2.7v21.7h2.7V14.6z"/>
	<g>
		<path d="M140.3,1.5v48H1.5v-48H140.3 M141.8,0H0v51h141.7V0H141.8z"/>
	</g>
</g>
</svg>
