<svg xmlns="http://www.w3.org/2000/svg" width="93.53" height="93.531" viewBox="0 0 93.53 93.531">
  <g id="Gruppe_1868" data-name="Gruppe 1868" transform="translate(1.5 1.5)">
    <path id="Pfad_2189" data-name="Pfad 2189" d="M441.131,480.427a45.265,45.265,0,1,1-45.266-45.266A45.265,45.265,0,0,1,441.131,480.427Z" transform="translate(-350.601 -435.161)" fill="#fd6d7d" stroke="#fff" stroke-width="3"/>
    <g id="Gruppe_1868-2" data-name="Gruppe 1868" transform="translate(24.491 17.332)">
      <path id="Pfad_2190" data-name="Pfad 2190" d="M379.2,474.5a2.9,2.9,0,1,1,2.9-2.9,2.9,2.9,0,0,1-2.9,2.9Zm0-7.736a4.834,4.834,0,1,0,4.834,4.834,4.84,4.84,0,0,0-4.834-4.834Z" transform="translate(-367.682 -443.562)" fill="#fff"/>
      <path id="Pfad_2191" data-name="Pfad 2191" d="M395.114,475.784a1.934,1.934,0,1,1,1.933-1.933,1.936,1.936,0,0,1-1.933,1.933Zm0-5.8a3.868,3.868,0,1,0,3.867,3.868,3.873,3.873,0,0,0-3.867-3.868Z" transform="translate(-364.257 -442.91)" fill="#fff"/>
      <path id="Pfad_2192" data-name="Pfad 2192" d="M385.142,478.511a.967.967,0,1,1,.967.966.968.968,0,0,1-.967-.966Zm3.867,0a2.9,2.9,0,1,0-2.9,2.9,2.9,2.9,0,0,0,2.9-2.9Z" transform="translate(-365.888 -441.768)" fill="#fff"/>
      <path id="Pfad_2193" data-name="Pfad 2193" d="M379.037,487.843a1.934,1.934,0,1,1,1.934-1.934,1.937,1.937,0,0,1-1.934,1.934Zm0-5.8a3.867,3.867,0,1,0,3.867,3.867,3.871,3.871,0,0,0-3.867-3.867Z" transform="translate(-367.518 -440.463)" fill="#fff"/>
      <path id="Pfad_2194" data-name="Pfad 2194" d="M394.951,485.908a.967.967,0,1,1,.967-.967.968.968,0,0,1-.967.967Zm0-3.867a2.9,2.9,0,1,0,2.9,2.9,2.9,2.9,0,0,0-2.9-2.9Z" transform="translate(-364.094 -440.463)" fill="#fff"/>
      <path id="Pfad_2195" data-name="Pfad 2195" d="M385.137,471.306l2.447,1.226a.98.98,0,0,0,.429.1.967.967,0,0,0,.435-1.832L386,469.576a.967.967,0,1,0-.865,1.73Z" transform="translate(-365.605 -443.013)" fill="#fff"/>
      <path id="Pfad_2196" data-name="Pfad 2196" d="M393.343,481.085a.966.966,0,0,0,.683-1.65l-1.933-1.934a.967.967,0,0,0-1.368,1.368l1.934,1.934a.967.967,0,0,0,.683.283Z" transform="translate(-364.42 -441.442)" fill="#fff"/>
      <path id="Pfad_2197" data-name="Pfad 2197" d="M387.8,484.945l-2.6.866a.967.967,0,0,0,.307,1.885.981.981,0,0,0,.306-.051l2.595-.865a.967.967,0,0,0-.611-1.836Z" transform="translate(-365.617 -439.884)" fill="#fff"/>
      <path id="Pfad_2198" data-name="Pfad 2198" d="M376.016,480l1.934-1.934a.967.967,0,0,0-1.368-1.368l-1.934,1.934A.967.967,0,0,0,376.016,480Z" transform="translate(-367.682 -441.605)" fill="#fff"/>
      <path id="Pfad_2199" data-name="Pfad 2199" d="M390.825,456.343a.967.967,0,0,0-.44,1.883c.069.017,6.9,1.672,7.975,6.986a.966.966,0,0,0,.947.775.88.88,0,0,0,.192-.019.966.966,0,0,0,.755-1.14c-1.316-6.515-9.1-8.407-9.429-8.484Z" transform="translate(-364.583 -445.682)" fill="#fff"/>
      <path id="Pfad_2200" data-name="Pfad 2200" d="M405.978,471.874a11.272,11.272,0,0,0-8.122-3.138,20.8,20.8,0,0,1-8.978-1.658c-.348-.158-.7-.31-1.063-.434a31.5,31.5,0,0,0-6.632-1.5,10.992,10.992,0,0,0-10.44,4.78v-3.98c0-4.068,2.092-5.03,4.308-6.05,1.584-.729,3.345-1.565,3.589-3.677h21.111c.238,2.105,1.946,2.942,3.485,3.672,2.142,1.018,4.166,1.979,4.166,6.055v7.609a11.2,11.2,0,0,0-1.423-1.683Zm1.423,19.267a8.558,8.558,0,0,1-8.548,8.549H379.292a8.56,8.56,0,0,1-8.549-8.549V476.156a9.16,9.16,0,0,1,10.218-9.088,29.571,29.571,0,0,1,6.224,1.4h0a9.649,9.649,0,0,1,.9.367,22.812,22.812,0,0,0,9.836,1.831,9.164,9.164,0,0,1,9.485,9.135v11.335Zm-31.908-40.428a1.156,1.156,0,0,1,1.092-1.3h1.808v4.876h-1.808a1.092,1.092,0,0,1-1.077-1.061,1.8,1.8,0,0,1-.017-.242v-2.27Zm20.3-1.3h1.934v4.878H395.8v-4.878Zm-3.867,0h1.934v4.878h-1.934v-4.878Zm-3.867,0H390v4.878h-1.933v-4.878Zm-3.868,0h1.934v4.878H384.2v-4.878Zm-3.867,0h1.934v4.878h-1.934v-4.878Zm22.239,1.3v2.27a1.787,1.787,0,0,1-.016.242,1.093,1.093,0,0,1-1.078,1.061h-1.808v-4.878h1.808a1.156,1.156,0,0,1,1.093,1.3Zm1.5,7.433c-1.4-.665-2.181-1.074-2.377-1.933.07-.006.132-.025.2-.035.1-.013.2-.026.3-.049s.185-.057.278-.089.186-.064.275-.1.171-.094.255-.144.164-.1.241-.152a2.943,2.943,0,0,0,.225-.2c.067-.063.14-.121.2-.19a3.022,3.022,0,0,0,.192-.251c.053-.072.111-.14.156-.217.059-.1.106-.207.155-.313.036-.077.078-.149.107-.23a3.164,3.164,0,0,0,.108-.391c.018-.072.043-.138.057-.212a3.765,3.765,0,0,0,.058-.656v-2.27a3.068,3.068,0,0,0-3.026-3.237H376.586a3.067,3.067,0,0,0-3.026,3.237v2.27a3.069,3.069,0,0,0,3.026,3.238h.117c-.191.8-.921,1.212-2.46,1.921-2.294,1.055-5.433,2.5-5.433,7.807v25.192a10.494,10.494,0,0,0,10.482,10.483h19.561a10.5,10.5,0,0,0,10.482-10.483V465.947c0-5.3-3.046-6.745-5.27-7.8Z" transform="translate(-368.809 -447.476)" fill="#fff" stroke="#fff" stroke-miterlimit="10" stroke-width="0.3"/>
    </g>
  </g>
</svg>
