<svg xmlns="http://www.w3.org/2000/svg" width="48" height="48" viewBox="0 0 48 48">
  <g id="Gruppe_1895" data-name="Gruppe 1895" transform="translate(-1494.168 -145)">
    <circle id="Ellipse_4" data-name="Ellipse 4" cx="24" cy="24" r="24" transform="translate(1494.168 145)" fill="#fd6d7d"/>
    <g id="Gruppe_1764" data-name="Gruppe 1764" transform="translate(394.479 117.277)">
      <path id="Pfad_1917" data-name="Pfad 1917" d="M1128.926,65.241H1118.62a8.148,8.148,0,0,1-8.139-8.138V46.8a8.148,8.148,0,0,1,8.139-8.139h10.306a8.148,8.148,0,0,1,8.139,8.139V57.1A8.148,8.148,0,0,1,1128.926,65.241ZM1118.62,40.648a6.155,6.155,0,0,0-6.148,6.149V57.1a6.155,6.155,0,0,0,6.148,6.148h10.306a6.155,6.155,0,0,0,6.149-6.148V46.8a6.155,6.155,0,0,0-6.149-6.149Z" fill="#fff"/>
      <path id="Pfad_1918" data-name="Pfad 1918" d="M1123.773,58.674a6.725,6.725,0,1,1,6.725-6.724A6.732,6.732,0,0,1,1123.773,58.674Zm0-11.411a4.687,4.687,0,1,0,4.686,4.687A4.693,4.693,0,0,0,1123.773,47.263Z" fill="#fff"/>
      <path id="Pfad_1919" data-name="Pfad 1919" d="M1132.98,44.493a1.75,1.75,0,1,1-1.75-1.75A1.751,1.751,0,0,1,1132.98,44.493Z" fill="#fff"/>
    </g>
  </g>
</svg>
